<?xml version="1.0" standalone="no"?>
<!DOCTYPE svg PUBLIC "-//W3C//DTD SVG 20010904//EN"
 "http://www.w3.org/TR/2001/REC-SVG-20010904/DTD/svg10.dtd">
<svg version="1.0" xmlns="http://www.w3.org/2000/svg"
 width="500.000000pt" height="500.000000pt" viewBox="0 0 500.000000 500.000000"
 preserveAspectRatio="xMidYMid meet">

<g transform="translate(0.000000,500.000000) scale(0.100000,-0.100000)"
fill="#000000" stroke="none">
<path d="M3026 4866 c243 -128 458 -281 630 -448 l61 -60 126 54 c70 29 127
56 127 59 0 9 -137 101 -242 163 -211 123 -471 224 -698 271 -41 8 -86 17
-100 20 -14 3 30 -23 96 -59z"/>
<path d="M1993 4810 c198 -159 415 -412 636 -742 l92 -137 77 33 c42 18 212
91 377 161 165 71 302 130 305 132 11 9 -215 190 -344 275 -186 123 -382 214
-586 273 -158 46 -302 65 -481 65 l-150 0 74 -60z"/>
<path d="M1495 4748 c-49 -28 -88 -100 -112 -208 -20 -93 -23 -395 -4 -545 28
-231 97 -574 115 -581 6 -2 235 92 509 209 l498 214 -76 112 c-321 477 -647
792 -846 816 -34 5 -53 1 -84 -17z"/>
<path d="M1031 4424 c-272 -285 -450 -685 -505 -1139 -18 -146 -27 -307 -18
-301 4 2 174 74 377 161 204 86 373 160 376 164 4 3 -6 59 -22 125 -38 161
-76 374 -94 531 -16 134 -21 441 -9 520 3 25 4 45 1 45 -3 0 -50 -48 -106
-106z"/>
<path d="M4034 4237 l-142 -60 78 -98 c146 -183 255 -351 372 -576 l63 -120
159 68 c87 38 160 70 163 72 7 7 -36 97 -98 204 -105 182 -251 373 -386 504
l-68 67 -141 -61z"/>
<path d="M3253 3902 l-410 -175 53 -93 c82 -145 224 -424 300 -587 50 -109 73
-147 84 -144 17 4 892 378 900 384 5 5 -59 135 -117 238 -93 162 -248 381
-359 506 l-41 47 -410 -176z"/>
<path d="M296 3579 c-74 -155 -135 -324 -176 -492 -29 -118 -55 -275 -47 -283
2 -3 48 14 101 37 l96 41 0 118 c0 192 31 440 80 630 10 41 17 76 15 79 -3 2
-34 -56 -69 -130z"/>
<path d="M2085 3403 c-291 -125 -532 -228 -533 -229 -5 -3 86 -290 146 -459
77 -218 156 -415 167 -415 5 0 274 113 596 251 l587 252 -31 71 c-86 197 -379
757 -395 756 -4 -1 -245 -103 -537 -227z"/>
<path d="M4655 3234 c-82 -36 -151 -66 -153 -68 -1 -2 22 -77 52 -167 67 -201
108 -370 136 -554 12 -77 25 -152 28 -167 l7 -27 110 48 110 47 -1 205 c-1
231 -16 357 -69 564 -36 143 -51 185 -62 184 -5 0 -75 -30 -158 -65z"/>
<path d="M917 2903 l-407 -175 5 -52 c17 -150 49 -337 75 -445 30 -122 112
-384 129 -409 6 -11 107 28 457 178 247 106 452 195 456 199 4 4 -22 81 -58
171 -67 169 -234 656 -234 684 0 8 -3 17 -7 19 -5 2 -191 -74 -416 -170z"/>
<path d="M3818 2876 c-246 -106 -450 -194 -453 -197 -2 -3 20 -66 49 -140 69
-171 152 -406 210 -590 30 -97 49 -143 58 -141 20 4 792 334 801 342 9 8 -14
210 -39 341 -37 202 -150 580 -172 578 -4 0 -208 -87 -454 -193z"/>
<path d="M165 2580 l-110 -47 -3 -44 c-8 -103 27 -386 69 -559 28 -116 100
-330 111 -330 10 0 235 95 256 109 10 6 1 45 -42 172 -80 240 -156 577 -156
694 0 55 -8 55 -125 5z"/>
<path d="M2539 2328 l-586 -252 31 -70 c92 -212 377 -756 396 -756 8 0 1061
449 1068 455 5 5 -85 289 -146 460 -77 219 -156 415 -167 415 -5 -1 -274 -114
-596 -252z"/>
<path d="M4813 2033 l-83 -36 0 -121 c0 -108 -16 -290 -36 -416 -4 -25 -4 -43
-1 -39 13 11 95 207 126 299 50 147 99 351 84 349 -4 0 -45 -17 -90 -36z"/>
<path d="M1280 1789 c-245 -105 -449 -194 -453 -198 -11 -11 75 -183 160 -320
117 -189 331 -468 357 -465 16 2 790 335 799 344 5 4 -28 75 -73 156 -76 139
-290 569 -319 642 -8 17 -16 32 -20 32 -3 -1 -206 -86 -451 -191z"/>
<path d="M4114 1733 l-382 -164 14 -57 c75 -307 124 -644 126 -873 l2 -156 56
40 c76 56 166 130 225 187 115 109 255 472 309 800 16 94 41 379 34 384 -1 2
-175 -71 -384 -161z"/>
<path d="M495 1454 c-44 -20 -99 -44 -123 -54 l-43 -19 25 -48 c34 -67 158
-253 224 -337 63 -79 267 -292 323 -337 l37 -29 85 36 85 36 -86 106 c-137
172 -277 392 -381 600 -23 45 -47 82 -54 81 -6 0 -48 -16 -92 -35z"/>
<path d="M3005 1259 c-269 -116 -493 -213 -497 -217 -8 -9 167 -263 282 -409
103 -131 335 -367 409 -416 l54 -36 86 31 c47 17 129 50 183 75 l97 45 8 57
c13 94 7 406 -11 541 -32 238 -93 531 -111 536 -6 2 -230 -91 -500 -207z"/>
<path d="M1911 790 c-200 -86 -371 -161 -379 -166 -11 -8 8 -28 88 -94 252
-208 480 -340 745 -428 l120 -40 145 8 c131 8 273 24 308 35 8 3 -25 44 -85
103 -163 163 -318 357 -487 611 -48 72 -88 131 -89 130 -1 -1 -166 -72 -366
-159z"/>
<path d="M1216 491 l-60 -27 80 -47 c114 -69 397 -205 369 -179 -5 6 -45 37
-87 71 -43 33 -108 89 -145 124 -100 92 -90 88 -157 58z"/>
</g>
</svg>
